<?xml version="1.0" encoding="UTF-8" standalone="no"?>
<!DOCTYPE svg PUBLIC "-//W3C//DTD SVG 1.1//EN" "http://www.w3.org/Graphics/SVG/1.1/DTD/svg11.dtd">
<svg width="100%" height="100%" viewBox="0 0 100 112" version="1.1" xmlns="http://www.w3.org/2000/svg" xmlns:xlink="http://www.w3.org/1999/xlink" xml:space="preserve" xmlns:serif="http://www.serif.com/" style="fill-rule:evenodd;clip-rule:evenodd;stroke-linecap:round;stroke-linejoin:round;">
    <g transform="matrix(1.04671,0,0,1.05255,-2.4093,-2.98433)">
        <circle cx="50" cy="56" r="40" style="fill:rgb(255,239,216);"/>
    </g>
    <g id="Scene">
        <circle cx="50" cy="56" r="40" style="fill:rgb(8,34,69);"/>
        <ellipse cx="50" cy="87.72" rx="15.52" ry="1.73" style="fill:rgb(220,190,138);fill-opacity:0.89;"/>
        <path d="M58,60.45C56.536,53.28 60.005,45.951 66.48,42.54C60.276,42.034 54.292,45.072 51.04,50.38C51.21,49.426 51.295,48.459 51.295,47.49C51.295,38.427 43.837,30.97 34.775,30.97C32.117,30.97 29.497,31.612 27.14,32.84C35.654,33.547 42.284,40.751 42.284,49.293C42.284,55.412 38.883,61.048 33.47,63.9C39.674,64.406 45.658,61.368 48.91,56.06C48.736,57.025 48.649,58.004 48.649,58.984C48.649,68.047 56.107,75.504 65.169,75.504C67.845,75.504 70.481,74.854 72.85,73.61C65.544,73.021 59.464,67.633 58,60.45Z" style="fill:rgb(220,190,138);fill-rule:nonzero;"/>
        <path d="M32.16,33.16C35.097,33.16 37.917,33.816 40.46,35.003C45.773,37.482 49.879,42.277 51.32,48.24C51.332,47.983 51.338,47.725 51.338,47.467C51.338,38.405 43.881,30.947 34.818,30.947C32.143,30.947 29.508,31.597 27.14,32.84C28.051,32.915 28.954,33.065 29.84,33.29C30.61,33.202 31.385,33.158 32.16,33.16Z" style="fill:rgb(255,239,216);fill-rule:nonzero;"/>
        <path d="M63.69,44.43C64.566,43.707 65.514,43.077 66.52,42.55C61.053,42.105 55.709,44.41 52.28,48.69C55.535,46.096 59.532,44.604 63.69,44.43Z" style="fill:rgb(255,239,216);fill-rule:nonzero;"/>
        <path d="M58,60.45C56.536,53.28 60.005,45.951 66.48,42.54C60.276,42.034 54.292,45.072 51.04,50.38C51.21,49.426 51.295,48.459 51.295,47.49C51.295,40.339 46.652,34.187 40.24,31.91C38.527,31.302 36.686,30.97 34.775,30.97C32.117,30.97 29.497,31.612 27.14,32.84C35.654,33.547 42.284,40.751 42.284,49.293C42.284,55.412 38.883,61.048 33.47,63.9C39.674,64.406 45.658,61.368 48.91,56.06C48.736,57.025 48.649,58.004 48.649,58.984C48.649,68.047 56.107,75.504 65.169,75.504C67.845,75.504 70.481,74.854 72.85,73.61C65.544,73.021 59.464,67.633 58,60.45Z" style="fill:none;fill-rule:nonzero;stroke:rgb(69,65,60);stroke-width:1px;"/>
    </g>
</svg>
